<svg viewBox="0 0 200 200" xmlns="http://www.w3.org/2000/svg"><path d="m100.26 179.51c-44.05 0-79.77-35.72-79.77-79.77 0-40.61 30.36-74.11 69.61-79.1v-20.64c-50.6 5.09-90.1 47.8-90.1 99.74 0 55.37 44.89 100.26 100.26 100.26 51.94 0 94.65-39.5 99.74-90.09h-20.64c-5 39.25-38.49 69.61-79.1 69.61z" fill="#4c6584"/><g fill="#f15d66"><path d="m179.36 89.58h20.64c-4.76-47.25-42.33-84.82-89.58-89.58v20.64c35.93 4.57 64.37 33.02 68.94 68.94z"/><path d="m137.64 89.71h21.1c-4.26-24.71-23.74-44.19-48.45-48.45v21.1c13.3 3.6 23.75 14.05 27.35 27.35z"/><path d="m100 81.55c-10.19 0-18.45 8.26-18.45 18.45s8.26 18.45 18.45 18.45 18.45-8.26 18.45-18.45-8.26-18.45-18.45-18.45z"/></g></svg>